{"title":"CBGB 2013 720p HDRip x264 AC3 UNiQUE","uid":8935985,"size":2785803617,"categoryP":"video","categoryS":"hd___movies","magnet":"?xt=urn:btih:74639217341a7af280a40c61186bfef04e5e0673&amp;dn=CBGB+2013+720p+HDRip+x264+AC3+UNiQUE&amp;tr=udp%3A%2F%2Ftracker.openbittorrent.com%3A80&amp;tr=udp%3A%2F%2Fopen.demonii.com%3A1337&amp;tr=udp%3A%2F%2Ftracker.coppersurfer.tk%3A6969&amp;tr=udp%3A%2F%2Fexodus.desync.com%3A6969","seeders":20,"leechers":0,"uploader":"srkfan","files":2,"time":1379563342,"description":" &lt;a href=&quot;http://img17.imageshack.us/img17/3779/pgdu.jpg&quot; rel=&quot;nofollow&quot; target=&quot;_NEW&quot;&gt;http://img17.imageshack.us/img17/3779/pgdu.jpg&lt;/a&gt;\n &lt;a href=&quot;\nhttp://www.imdb.com/title/tt1786751/&quot; rel=&quot;nofollow&quot; target=&quot;_NEW&quot;&gt;\nhttp://www.imdb.com/title/tt1786751/&lt;/a&gt;\n\nSource: 1080p THX\n\nGeneral:\n\nFormat                                   : Matroska\nFormat version                           : Version 2\nFile size                                : 2.59 GiB\nDuration                                 : 1h 42mn\nOverall bit rate mode                    : Variable\nOverall bit rate                         : 3 625 Kbps\nEncoded date                             : UTC 2013-09-18 23:28:31\nWriting application                      : mkvmerge v6.4.1 ('Omega Point') built on Sep 16 2013 22:05:10\nWriting library                          : libebml v1.3.0 + libmatroska v1.4.1\n\nVideo:\n\nID                                       : 1\nFormat                                   : AVC\nFormat/Info                              : Advanced Video Codec\nFormat profile                           : &lt;a class=&quot;__cf_email__&quot; href=&quot;/cdn-cgi/l/email-protection&quot; data-cfemail=&quot;2a62434d426a661e041b&quot;&gt;[email&amp;#160;protected]&lt;/a&gt;&lt;script cf-hash='f9e31' type=&quot;text/javascript&quot;&gt;\n/* &lt;![CDATA[ */!function(){try{var t=&quot;currentScript&quot;in document?document.currentScript:function(){for(var t=document.getElementsByTagName(&quot;script&quot;),e=t.length;e--;)if(t[e].getAttribute(&quot;cf-hash&quot;))return t[e]}();if(t&amp;&amp;t.previousSibling){var e,r,n,i,c=t.previousSibling,a=c.getAttribute(&quot;data-cfemail&quot;);if(a){for(e=&quot;&quot;,r=parseInt(a.substr(0,2),16),n=2;a.length-n;n+=2)i=parseInt(a.substr(n,2),16)^r,e+=String.fromCharCode(i);e=document.createTextNode(e),c.parentNode.replaceChild(e,c)}}}catch(u){}}();/* ]]&gt; */&lt;/script&gt;\nFormat settings, CABAC                   : Yes\nFormat settings, ReFrames                : 3 frames\nCodec ID                                 : V_MPEG4/ISO/AVC\nDuration                                 : 1h 42mn\nBit rate mode                            : Variable\nBit rate                                 : 3 240 Kbps\nMaximum bit rate                         : 40.0 Mbps\nWidth                                    : 1 264 pixels\nHeight                                   : 528 pixels\nDisplay aspect ratio                     : 2.40:1\nFrame rate                               : 59.940 fps\nColor space                              : YUV\nChroma subsampling                       : 4:2:0\nBit depth                                : 8 bits\nScan type                                : Progressive\nBits/(Pixel*Frame)                       : 0.081\nStream size                              : 2.27 GiB (87%)\nWriting library                          : x264 core 138 r2358 9e941\nDefault                                  : Yes\nForced                                   : No\n\nAudio:\n\nID                                       : 2\nFormat                                   : AC-3\nFormat/Info                              : Audio Coding 3\nMode extension                           : CM (complete main)\nFormat settings, Endianness              : Big\nCodec ID                                 : A_AC3\nDuration                                 : 1h 42mn\nBit rate mode                            : Constant\nBit rate                                 : 384 Kbps\nChannel(s)                               : 2 channels\nChannel positions                        : Front: L R\nSampling rate                            : 48.0 KHz\nBit depth                                : 16 bits\nCompression mode                         : Lossy\nDelay relative to video                  : 15ms\nStream size                              : 281 MiB (11%)\nLanguage                                 : English\nDefault                                  : Yes\nForced                                   : No\n\nScreens:\n &lt;a href=&quot;\nhttp://i.imgur.com/ZwF1jJr.jpg&quot; rel=&quot;nofollow&quot; target=&quot;_NEW&quot;&gt;\nhttp://i.imgur.com/ZwF1jJr.jpg&lt;/a&gt; &lt;a href=&quot;\nhttp://i.imgur.com/sF7KwuA.jpg&quot; rel=&quot;nofollow&quot; target=&quot;_NEW&quot;&gt;\nhttp://i.imgur.com/sF7KwuA.jpg&lt;/a&gt; &lt;a href=&quot;\nhttp://i.imgur.com/rl6Qe1y.png&quot; rel=&quot;nofollow&quot; target=&quot;_NEW&quot;&gt;\nhttp://i.imgur.com/rl6Qe1y.png&lt;/a&gt; &lt;a href=&quot;\nhttp://i.imgur.com/vDXHeaA.jpg&quot; rel=&quot;nofollow&quot; target=&quot;_NEW&quot;&gt;\nhttp://i.imgur.com/vDXHeaA.jpg&lt;/a&gt; &lt;a href=&quot;\nhttp://i.imgur.com/lMrXVvP.jpg&quot; rel=&quot;nofollow&quot; target=&quot;_NEW&quot;&gt;\nhttp://i.imgur.com/lMrXVvP.jpg&lt;/a&gt;","torrent":{"xt":"urn:btih:74639217341a7af280a40c61186bfef04e5e0673","amp;dn":"CBGB+2013+720p+HDRip+x264+AC3+UNiQUE","amp;tr":["udp%3A%2F%2Ftracker.openbittorrent.com%3A80","udp%3A%2F%2Fopen.demonii.com%3A1337","udp%3A%2F%2Ftracker.coppersurfer.tk%3A6969","udp%3A%2F%2Fexodus.desync.com%3A6969"],"infoHash":"74639217341a7af280a40c61186bfef04e5e0673","infoHashBuffer":{"type":"Buffer","data":[116,99,146,23,52,26,122,242,128,164,12,97,24,107,254,240,78,94,6,115]},"announce":[],"urlList":[]}}